<svg xmlns="http://www.w3.org/2000/svg" viewBox="0 0 2.117 1.323"><g transform="translate(-6.824 -91.794)"><g transform="matrix(.01342 0 0 .00945 6.948 90.986)"><rect width="15.502" height="2.539" x="105.058" y="154.211" rx=".748" ry="1"/><path d="M118.764 158.494v-6.027l3.913 3.014z"/></g><g transform="matrix(.01183 0 0 .00945 6.594 90.986)"><rect width="15.502" height="2.539" x="105.058" y="154.211" rx=".748" ry="1"/><path d="M118.764 158.494v-6.027l3.913 3.014z"/></g><circle cx="7.678" cy="92.455" r=".143" fill="#ac3232"/><circle cx="8.2" cy="92.455" r=".143" fill="#ac3232"/><text style="line-height:1.25;-inkscape-font-specification:Arial" x="7.519" y="92.239" stroke-width=".003" font-family="Arial" font-size=".127" font-weight="400" letter-spacing="0" word-spacing="0"><tspan x="7.519" y="92.239" style="-inkscape-font-specification:Arial" font-size=".068">globalGain</tspan></text><text style="line-height:1.25;-inkscape-font-specification:Arial" x="7.918" y="92.681" stroke-width=".003" font-family="Arial" font-size=".127" font-weight="400" letter-spacing="0" word-spacing="0"><tspan x="7.918" y="92.681" style="-inkscape-font-specification:Arial" font-size=".068">audioContext.dest</tspan></text><g transform="matrix(.0128 0 0 .0128 6.337 90.49)"><rect width="11.225" height="6.414" x="179.071" y="150.605" rx="1" ry="1"/><path d="M191.6 146.255v15.114l-9.812-7.557z"/></g><text style="line-height:1.25;-inkscape-font-specification:Arial" x="8.577" y="92.301" stroke-width=".003" font-family="Arial" font-size=".068" font-weight="400" letter-spacing="0" word-spacing="0"><tspan x="8.577" y="92.301" style="-inkscape-font-specification:Arial">Speaker</tspan></text><circle cx="7.17" cy="92.121" r=".143" fill="#ac3232"/><circle cx="7.17" cy="92.826" r=".143" fill="#ac3232"/><circle cx="7.168" cy="92.361" r=".036"/><circle cx="7.168" cy="92.478" r=".036"/><circle cx="7.168" cy="92.585" r=".036"/><text style="line-height:1.25;-inkscape-font-specification:Arial" x="6.956" y="91.946" stroke-width=".003" font-family="Arial" font-size=".068" font-weight="400" letter-spacing="0" word-spacing="0"><tspan x="6.956" y="91.946" style="-inkscape-font-specification:Arial">Buffer source 1</tspan></text><text style="line-height:1.25;-inkscape-font-specification:Arial" x="6.947" y="93.041" stroke-width=".003" font-family="Arial" font-size=".068" font-weight="400" letter-spacing="0" word-spacing="0"><tspan x="6.947" y="93.041" style="-inkscape-font-specification:Arial">Buffer source N</tspan></text><g transform="matrix(.00943 .00544 -.00473 .00818 7.084 90.373)"><rect width="15.502" height="2.539" x="105.058" y="154.211" rx=".748" ry="1"/><path d="M118.764 158.494v-6.027l3.913 3.014z"/></g><g transform="matrix(.00943 -.00544 -.00473 -.00818 7.082 94.542)"><rect width="15.502" height="2.539" x="105.058" y="154.211" rx=".748" ry="1"/><path d="M118.764 158.494v-6.027l3.913 3.014z"/></g><g transform="matrix(.01088 0 0 .00945 6.168 90.986)"><rect width="15.502" height="2.539" x="105.058" y="154.211" rx=".748" ry="1"/><path d="M118.764 158.494v-6.027l3.913 3.014z"/></g><circle cx="7.142" cy="92.801" r=".096" fill="#ac3232"/></g></svg>