<svg xmlns="http://www.w3.org/2000/svg" viewBox="0 0 10.583 4.762"><g transform="matrix(.01684 0 0 .01856 -.914 -1.864)"><rect width="628.414" height="256.539" x="54.259" y="100.424" fill="#222034" rx="16.99" ry="15.976"/><path fill="#fff" d="M78.645 107.608h579.04c9.311 0 16.808 7.052 16.808 15.81-.066 65.315.021 130.63.115 195.944H62.053c-.534-65.31-.216-130.63-.216-195.943 0-8.76 7.496-15.811 16.808-15.811z"/><path fill="#847e87" d="M61.75 319.362h612.858l-.115 15.76v.663c0 8.73-7.497 15.76-16.809 15.76H78.645c-9.312 0-16.808-7.03-16.808-15.76v-.663z"/></g><path fill="#222034" d="M1.977 1.31c.123.072.123 1.715 0 1.786-.124.072-1.547-.75-1.547-.893 0-.142 1.423-.964 1.547-.893z"/><path fill="#222034" d="M.43 2.026h.705v.18H.429z"/><path fill="#696a6a" d="M1.977 1.134c.123.071.123 1.714 0 1.786C1.853 2.99.43 2.17.43 2.027c0-.143 1.423-.965 1.547-.893z"/><path fill="#222034" d="M2.955 1.32c-.123.07-.123 1.714 0 1.785.124.072 1.547-.75 1.547-.893 0-.143-1.423-.964-1.547-.893z"/><path fill="#222034" d="M4.503 2.035h-.706v.18h.706z"/><path fill="#696a6a" d="M2.955 1.143c-.123.071-.123 1.714 0 1.785.124.072 1.547-.75 1.547-.892 0-.143-1.423-.965-1.547-.893z"/><g transform="matrix(.10038 0 0 .10038 -4.204 -10.88)"><circle cx="105.571" cy="130.09" r="10.758" fill="#222034"/><circle cx="105.638" cy="127.885" r="10.758" fill="#5fcde4"/></g><g transform="matrix(.10038 0 0 .10038 -1.578 -10.88)"><circle cx="105.571" cy="130.09" r="10.758" fill="#222034"/><circle cx="105.638" cy="127.885" r="10.758" fill="#d95763"/></g></svg>