<svg xmlns="http://www.w3.org/2000/svg" viewBox="0 0 12 12"><text style="line-height:1.25;-inkscape-font-specification:Arial" x="92.376" y="98.705" stroke-width=".265" font-family="Arial" font-size="4.586" font-weight="400" letter-spacing="0" transform="translate(-48.687 -91.711)" word-spacing="0"/><text style="line-height:1.25;-inkscape-font-specification:Arial" x="58.935" y="97.228" stroke-width=".05" font-family="Arial" font-size=".926" font-weight="400" letter-spacing="0" transform="translate(-48.687 -91.711)" word-spacing="0"><tspan x="58.935" y="97.228" style="-inkscape-font-specification:Arial" font-size=".794">X</tspan></text><text style="line-height:1.25;-inkscape-font-specification:Arial" x="53.659" y="93.403" stroke-width=".05" font-family="Arial" font-size=".794" font-weight="400" letter-spacing="0" transform="translate(-48.687 -91.711)" word-spacing="0"><tspan x="53.659" y="93.403" style="-inkscape-font-specification:Arial">Y</tspan></text><text style="line-height:1.25;-inkscape-font-specification:Arial" x="55.111" y="97.347" stroke-width=".044" font-family="Arial" font-size="1.766" font-weight="400" letter-spacing="0" transform="translate(-48.687 -91.711)" word-spacing="0"><tspan x="55.111" y="97.347" style="-inkscape-font-specification:Arial" font-size=".589">(0,0)</tspan></text><text style="line-height:1.25;-inkscape-font-specification:Arial" x="55.122" y="102.592" stroke-width=".044" font-family="Arial" font-size="1.766" font-weight="400" letter-spacing="0" transform="translate(-48.687 -91.711)" word-spacing="0"><tspan x="55.122" y="102.592" style="-inkscape-font-specification:Arial" font-size=".589">(0,-1)</tspan></text><text style="line-height:1.25;-inkscape-font-specification:Arial" x="55.228" y="93.393" stroke-width=".044" font-family="Arial" font-size="1.766" font-weight="400" letter-spacing="0" transform="translate(-48.687 -91.711)" word-spacing="0"><tspan x="55.228" y="93.393" style="-inkscape-font-specification:Arial" font-size=".589">(0,1)</tspan></text><text style="line-height:1.25;-inkscape-font-specification:Arial" x="49.238" y="98.864" stroke-width=".044" font-family="Arial" font-size="1.766" font-weight="400" letter-spacing="0" transform="translate(-48.687 -91.711)" word-spacing="0"><tspan x="49.238" y="98.864" style="-inkscape-font-specification:Arial" font-size=".589">(-1,0)</tspan></text><text style="line-height:1.25;-inkscape-font-specification:Arial" x="58.531" y="98.864" stroke-width=".044" font-family="Arial" font-size="1.766" font-weight="400" letter-spacing="0" transform="translate(-48.687 -91.711)" word-spacing="0"><tspan x="58.531" y="98.864" style="-inkscape-font-specification:Arial" font-size=".589">(1,0)</tspan></text><path d="M5.97 10.648h.055V1.6H5.97z"/><path d="M6.274 10.502H5.72l.276.479zM6.274 1.601H5.72l.276-.479z"/><g><path d="M1.401 6.024v.055h9.047v-.055z"/><path d="M1.547 6.328v-.553l-.479.277zM10.448 6.328v-.553l.479.277z"/></g></svg>