<svg xmlns="http://www.w3.org/2000/svg" width="22.244" height="35.768"><g transform="translate(-143.54 -267.098)"><path fill="#597dce" d="M143.54 267.098h22.239v35.768H143.54z" paint-order="fill markers stroke"/><g transform="matrix(.30117 0 0 .30117 144.254 226.442)"><circle cx="4.105" cy="142.379" r="3.211" fill="#4d4d4d"/><circle cx="4.134" cy="141.958" r="3.211" fill="#fff"/><circle cx="4.275" cy="142.151" r="1.704" fill="#4d4d4d"/><circle cx="3.331" cy="140.919" r=".827" fill="#fff"/><circle cx="4.04" cy="142.195" r=".402" fill="#fff"/></g><path fill="#222034" d="M144.669 271.532h19.979v30.207h-19.979z"/><ellipse cx="154.255" cy="286.486" fill="#45283c" rx="4.266" ry="5.437"/><ellipse cx="154.2" cy="285.381" fill="#222034" rx="1.649" ry="2.226"/><path fill="#ac3232" d="M143.54 275.275h22.238v8.693H143.54z" paint-order="fill markers stroke"/><text style="line-height:1.25" x="59.643" y="119.801" font-family="sans-serif" font-size="40" font-weight="400" letter-spacing="0" transform="matrix(1.00025 0 0 1 90.15 150.045)" word-spacing="0"/><path fill="#fff" d="M147.74 271.522h2.65l-.295 2.165-2.102-.105zM151.124 271.522h3.154l-.19 2.102-2.774-.378zM155.102 271.522h2.48l-.252 1.682-1.955.168zM158.685 271.522h2.55l-.189 1.608-2.235.231zM144.67 271.522h2.46l-.357 2.449-2.104.273zM162.188 271.522h2.46v2.841l-2.187-.21z"/><path fill="#76428a" d="M144.669 301.182h19.979v.557h-19.979z"/><path fill="#fff" d="M147.517 299.467l2.56.446.223 1.59h-2.649zM151.21 299.56l2.202.311.639 1.667h-3.154zM155.437 299.154l2.219.327.267 2.023h-3.006zM159.042 299.496l1.97.015.357 1.993h-2.55zM144.67 299.657l2.059-.52.401 2.485h-2.46zM161.98 299.317l2.668.33v1.857h-2.46z"/><rect width="99.964" height="9.892" x="53.436" y="270.033" fill="#ac3232" paint-order="fill markers stroke" ry="0" transform="translate(131.651 235.928) scale(.22248)"/><path fill="#222034" d="M144.67 271.415V301.739h.343v-30.063h19.292v30.063h.344V271.415z" opacity=".351"/><path fill="#222034" d="M144.668 283.933h19.966v.325h-19.966z" opacity=".351"/><g transform="matrix(.30117 0 0 .30117 162.54 226.442)"><circle cx="4.105" cy="142.379" r="3.211" fill="#4d4d4d"/><circle cx="4.134" cy="141.958" r="3.211" fill="#fff"/><circle cx="4.275" cy="142.151" r="1.704" fill="#4d4d4d"/><circle cx="3.331" cy="140.919" r=".827" fill="#fff"/><circle cx="4.04" cy="142.195" r=".402" fill="#fff"/></g><text style="line-height:1.25" x="141.109" y="278.072" font-family="sans-serif" font-size="40" font-weight="400" letter-spacing="0" word-spacing="0"/><text style="line-height:1.35000002" x="154.668" y="278.77" fill="#fff" stroke="#fff" stroke-width="0" font-family="sans-serif" font-size="1.978" font-weight="400" letter-spacing="0" word-spacing="0"><tspan x="154.668" y="278.77" style="line-height:1.35000002;-inkscape-font-specification:'Arial Bold';text-align:center" font-family="Arial" font-weight="700" text-anchor="middle">Making games</tspan><tspan x="154.668" y="281.472" style="line-height:1.35000002;-inkscape-font-specification:'Arial Bold';text-align:center" font-family="Arial" font-weight="700" text-anchor="middle">with TypeScript</tspan></text><text style="line-height:1.35000002" x="154.798" y="297.466" fill="#fff" stroke="#fff" stroke-width="0" font-family="sans-serif" font-size="1.978" font-weight="400" letter-spacing="0" word-spacing="0"><tspan x="154.798" y="297.466" style="line-height:1.35000002;-inkscape-font-specification:'Arial Bold';text-align:center" font-family="Arial" font-size="1.333" font-weight="700" text-anchor="middle">Øyvind</tspan></text></g></svg>