<svg xmlns="http://www.w3.org/2000/svg" viewBox="0 0 22.649 14.202"><g paint-order="markers stroke fill" transform="translate(-96.342 -133.63)"><rect width="8.289" height="6.965" x="103.181" y="134.933" fill="#4d4d4d" stroke="#000" stroke-dashoffset="48.686" stroke-linecap="square" stroke-linejoin="bevel" stroke-miterlimit="0" stroke-width=".264" rx=".025" ry=".033"/><path fill="#4d4d4d" stroke="#000" stroke-dashoffset="48.686" stroke-linecap="square" stroke-linejoin="bevel" stroke-miterlimit="0" stroke-width=".26458" d="M100.99 133.762a4.516 4.516 0 0 0-4.516 4.516 4.516 4.516 0 0 0 .93 2.738 3.049 4.42 0 0 0-.434 2.263 3.049 4.42 0 0 0 3.048 4.42 3.049 4.42 0 0 0 3.049-4.42 3.049 4.42 0 0 0-.076-.956 4.516 4.516 0 0 0 2.515-4.045 4.516 4.516 0 0 0-4.516-4.516z"/><circle cx="100.99" cy="138.277" r="3.83" fill="#b3b3b3"/><circle cx="103.228" cy="138.145" r="1.119" fill="gray" stroke="#1a1a1a" stroke-dashoffset="48.686" stroke-linecap="square" stroke-linejoin="bevel" stroke-miterlimit="0" stroke-width=".166"/><circle cx="98.709" cy="138.136" r="1.119" fill="gray" stroke="#1a1a1a" stroke-dashoffset="48.686" stroke-linecap="square" stroke-linejoin="bevel" stroke-miterlimit="0" stroke-width=".166"/><circle cx="100.892" cy="136.169" r="1.119" fill="gray" stroke="#1a1a1a" stroke-dashoffset="48.686" stroke-linecap="square" stroke-linejoin="bevel" stroke-miterlimit="0" stroke-width=".166"/><circle cx="100.959" cy="140.373" r="1.119" fill="gray" stroke="#1a1a1a" stroke-dashoffset="48.686" stroke-linecap="square" stroke-linejoin="bevel" stroke-miterlimit="0" stroke-width=".166"/><circle cx="104.553" cy="142.479" r="2.515" fill="#4d4d4d" stroke="#1a1a1a" stroke-dashoffset="48.686" stroke-linecap="square" stroke-linejoin="bevel" stroke-miterlimit="0" stroke-width=".373"/><circle cx="104.553" cy="142.479" r="1.495" fill="gray" stroke="#1a1a1a" stroke-dashoffset="48.686" stroke-linecap="square" stroke-linejoin="bevel" stroke-miterlimit="0" stroke-width=".222"/><path fill="#4d4d4d" stroke="#000" stroke-dashoffset="48.686" stroke-linecap="square" stroke-linejoin="bevel" stroke-miterlimit="0" stroke-width=".26458" d="M114.343 133.762a4.516 4.516 0 0 0-4.516 4.516 4.516 4.516 0 0 0 2.515 4.045 3.049 4.42 0 0 0-.076.956 3.049 4.42 0 0 0 3.048 4.42 3.049 4.42 0 0 0 3.05-4.42 3.049 4.42 0 0 0-.435-2.264 4.516 4.516 0 0 0 .93-2.737 4.516 4.516 0 0 0-4.516-4.516z"/><ellipse cx="-114.343" cy="138.277" fill="#b3b3b3" rx="3.83" ry="3.83" transform="scale(-1 1)"/><ellipse cx="-112.105" cy="138.145" fill="gray" stroke="#1a1a1a" stroke-dashoffset="48.686" stroke-linecap="square" stroke-linejoin="bevel" stroke-miterlimit="0" stroke-width=".166" rx="1.119" ry="1.119" transform="scale(-1 1)"/><ellipse cx="-116.624" cy="138.136" fill="gray" stroke="#1a1a1a" stroke-dashoffset="48.686" stroke-linecap="square" stroke-linejoin="bevel" stroke-miterlimit="0" stroke-width=".166" rx="1.119" ry="1.119" transform="scale(-1 1)"/><ellipse cx="-114.441" cy="136.169" fill="gray" stroke="#1a1a1a" stroke-dashoffset="48.686" stroke-linecap="square" stroke-linejoin="bevel" stroke-miterlimit="0" stroke-width=".166" rx="1.119" ry="1.119" transform="scale(-1 1)"/><ellipse cx="-114.374" cy="140.373" fill="gray" stroke="#1a1a1a" stroke-dashoffset="48.686" stroke-linecap="square" stroke-linejoin="bevel" stroke-miterlimit="0" stroke-width=".166" rx="1.119" ry="1.119" transform="scale(-1 1)"/><ellipse cx="-110.78" cy="142.479" fill="#4d4d4d" stroke="#1a1a1a" stroke-dashoffset="48.686" stroke-linecap="square" stroke-linejoin="bevel" stroke-miterlimit="0" stroke-width=".373" rx="2.515" ry="2.515" transform="scale(-1 1)"/><ellipse cx="-110.78" cy="142.479" fill="gray" stroke="#1a1a1a" stroke-dashoffset="48.686" stroke-linecap="square" stroke-linejoin="bevel" stroke-miterlimit="0" stroke-width=".222" rx="1.495" ry="1.495" transform="scale(-1 1)"/><circle cx="106.65" cy="138.261" r=".637" fill="gray" stroke="#1a1a1a" stroke-dashoffset="48.686" stroke-linecap="square" stroke-linejoin="bevel" stroke-miterlimit="0" stroke-width=".095"/><circle cx="108.658" cy="138.261" r=".637" fill="gray" stroke="#1a1a1a" stroke-dashoffset="48.686" stroke-linecap="square" stroke-linejoin="bevel" stroke-miterlimit="0" stroke-width=".095"/></g></svg>