<svg xmlns="http://www.w3.org/2000/svg" viewBox="0 0 13.494 7.127"><g paint-order="markers stroke fill" transform="translate(-83.432 -140.986)"><rect width="13.229" height="5.846" x="85.152" y="142.135" fill="#4d4d4d" stroke="#000" stroke-dashoffset="12.882" stroke-linecap="square" stroke-linejoin="bevel" stroke-miterlimit="0" stroke-width=".265" rx=".192" ry=".15" transform="translate(-1.587)"/><rect width="13.229" height="6.369" x="85.152" y="141.118" fill="#b3b3b3" stroke="#333" stroke-dashoffset="12.882" stroke-linecap="square" stroke-linejoin="bevel" stroke-miterlimit="0" stroke-width=".265" rx=".192" ry=".164" transform="translate(-1.587)"/><g transform="translate(-2.022 -1.096)"><rect width="1.125" height="1.125" x="85.904" y="145.308" fill="#4d4d4d" rx=".192" ry=".192"/><rect width="1.125" height="1.125" x="85.904" y="145.187" fill="#666" rx=".192" ry=".192"/></g><g transform="translate(-.368 -2.655)"><rect width="1.125" height="1.125" x="85.904" y="145.308" fill="#4d4d4d" rx=".192" ry=".192"/><rect width="1.125" height="1.125" x="85.904" y="145.187" fill="#666" rx=".192" ry=".192"/></g><g transform="translate(-.368 -1.096)"><rect width="1.125" height="1.125" x="85.904" y="145.308" fill="#4d4d4d" rx=".192" ry=".192"/><rect width="1.125" height="1.125" x="85.904" y="145.187" fill="#666" rx=".192" ry=".192"/></g><g transform="translate(-.368 .585)"><rect width="1.125" height="1.125" x="85.904" y="145.308" fill="#4d4d4d" rx=".192" ry=".192"/><rect width="1.125" height="1.125" x="85.904" y="145.187" fill="#666" rx=".192" ry=".192"/></g><g transform="translate(-2.022 -2.655)"><rect width="1.125" height="1.125" x="85.904" y="145.308" fill="#4d4d4d" rx=".192" ry=".192"/><rect width="1.125" height="1.125" x="85.904" y="145.187" fill="#666" rx=".192" ry=".192"/></g><g transform="translate(-2.022 .585)"><rect width="1.125" height="1.125" x="85.904" y="145.308" fill="#4d4d4d" rx=".192" ry=".192"/><rect width="1.125" height="1.125" x="85.904" y="145.187" fill="#666" rx=".192" ry=".192"/></g><g transform="translate(1.22 -1.096)"><rect width="1.125" height="1.125" x="85.904" y="145.308" fill="#4d4d4d" rx=".192" ry=".192"/><rect width="1.125" height="1.125" x="85.904" y="145.187" fill="#666" rx=".192" ry=".192"/></g><g transform="translate(2.874 -2.655)"><rect width="1.125" height="1.125" x="85.904" y="145.308" fill="#4d4d4d" rx=".192" ry=".192"/><rect width="1.125" height="1.125" x="85.904" y="145.187" fill="#666" rx=".192" ry=".192"/></g><g transform="translate(2.874 -1.096)"><rect width="1.125" height="1.125" x="85.904" y="145.308" fill="#4d4d4d" rx=".192" ry=".192"/><rect width="1.125" height="1.125" x="85.904" y="145.187" fill="#666" rx=".192" ry=".192"/></g><g transform="translate(1.22 -2.655)"><rect width="1.125" height="1.125" x="85.904" y="145.308" fill="#4d4d4d" rx=".192" ry=".192"/><rect width="1.125" height="1.125" x="85.904" y="145.187" fill="#666" rx=".192" ry=".192"/></g><g transform="translate(4.461 -1.096)"><rect width="1.125" height="1.125" x="85.904" y="145.308" fill="#4d4d4d" rx=".192" ry=".192"/><rect width="1.125" height="1.125" x="85.904" y="145.187" fill="#666" rx=".192" ry=".192"/></g><g transform="translate(6.116 -2.655)"><rect width="1.125" height="1.125" x="85.904" y="145.308" fill="#4d4d4d" rx=".192" ry=".192"/><rect width="1.125" height="1.125" x="85.904" y="145.187" fill="#666" rx=".192" ry=".192"/></g><g transform="translate(6.116 -1.096)"><rect width="1.125" height="1.125" x="85.904" y="145.308" fill="#4d4d4d" rx=".192" ry=".192"/><rect width="1.125" height="1.125" x="85.904" y="145.187" fill="#666" rx=".192" ry=".192"/></g><g transform="translate(4.461 -2.655)"><rect width="1.125" height="1.125" x="85.904" y="145.308" fill="#4d4d4d" rx=".192" ry=".192"/><rect width="1.125" height="1.125" x="85.904" y="145.187" fill="#666" rx=".192" ry=".192"/></g><g transform="translate(7.703 -1.096)"><rect width="1.125" height="1.125" x="85.904" y="145.308" fill="#4d4d4d" rx=".192" ry=".192"/><rect width="1.125" height="1.125" x="85.904" y="145.187" fill="#666" rx=".192" ry=".192"/></g><g transform="translate(9.358 -2.655)"><rect width="1.125" height="1.125" x="85.904" y="145.308" fill="#4d4d4d" rx=".192" ry=".192"/><rect width="1.125" height="1.125" x="85.904" y="145.187" fill="#666" rx=".192" ry=".192"/></g><g transform="translate(9.358 -1.096)"><rect width="1.125" height="1.125" x="85.904" y="145.308" fill="#4d4d4d" rx=".192" ry=".192"/><rect width="1.125" height="1.125" x="85.904" y="145.187" fill="#666" rx=".192" ry=".192"/></g><g transform="translate(9.358 .585)"><rect width="1.125" height="1.125" x="85.904" y="145.308" fill="#4d4d4d" rx=".192" ry=".192"/><rect width="1.125" height="1.125" x="85.904" y="145.187" fill="#666" rx=".192" ry=".192"/></g><g transform="translate(7.703 -2.655)"><rect width="1.125" height="1.125" x="85.904" y="145.308" fill="#4d4d4d" rx=".192" ry=".192"/><rect width="1.125" height="1.125" x="85.904" y="145.187" fill="#666" rx=".192" ry=".192"/></g><g transform="translate(7.703 .585)"><rect width="1.125" height="1.125" x="85.904" y="145.308" fill="#4d4d4d" rx=".192" ry=".192"/><rect width="1.125" height="1.125" x="85.904" y="145.187" fill="#666" rx=".192" ry=".192"/></g><g transform="matrix(1 0 0 .64478 -2.022 47.86)"><rect width="1.125" height="1.125" x="85.904" y="145.308" fill="#4d4d4d" rx=".192" ry=".192"/><rect width="1.125" height="1.125" x="85.904" y="145.187" fill="#666" rx=".192" ry=".192"/></g><g transform="matrix(1 0 0 .64478 -.368 47.86)"><rect width="1.125" height="1.125" x="85.904" y="145.308" fill="#4d4d4d" rx=".192" ry=".192"/><rect width="1.125" height="1.125" x="85.904" y="145.187" fill="#666" rx=".192" ry=".192"/></g><g transform="matrix(1 0 0 .64478 1.286 47.86)"><rect width="1.125" height="1.125" x="85.904" y="145.308" fill="#4d4d4d" rx=".192" ry=".192"/><rect width="1.125" height="1.125" x="85.904" y="145.187" fill="#666" rx=".192" ry=".192"/></g><g transform="matrix(1 0 0 .64478 2.874 47.86)"><rect width="1.125" height="1.125" x="85.904" y="145.308" fill="#4d4d4d" rx=".192" ry=".192"/><rect width="1.125" height="1.125" x="85.904" y="145.187" fill="#666" rx=".192" ry=".192"/></g><g transform="matrix(1 0 0 .64478 4.457 47.87)"><rect width="1.125" height="1.125" x="85.904" y="145.308" fill="#4d4d4d" rx=".192" ry=".192"/><rect width="1.125" height="1.125" x="85.904" y="145.187" fill="#666" rx=".192" ry=".192"/></g><g transform="matrix(1 0 0 .64478 6.077 47.86)"><rect width="1.125" height="1.125" x="85.904" y="145.308" fill="#4d4d4d" rx=".192" ry=".192"/><rect width="1.125" height="1.125" x="85.904" y="145.187" fill="#666" rx=".192" ry=".192"/></g><g transform="matrix(1 0 0 .64478 7.703 47.86)"><rect width="1.125" height="1.125" x="85.904" y="145.308" fill="#4d4d4d" rx=".192" ry=".192"/><rect width="1.125" height="1.125" x="85.904" y="145.187" fill="#666" rx=".192" ry=".192"/></g><g transform="matrix(1 0 0 .64478 9.358 47.873)"><rect width="1.125" height="1.125" x="85.904" y="145.308" fill="#4d4d4d" rx=".192" ry=".192"/><rect width="1.125" height="1.125" x="85.904" y="145.187" fill="#666" rx=".192" ry=".192"/></g><rect width="5.962" height="1.125" x="87.124" y="145.893" fill="#4d4d4d" rx=".4"/><rect width="5.962" height="1.125" x="87.124" y="145.772" fill="#666" rx=".4"/></g></svg>