<svg xmlns="http://www.w3.org/2000/svg" viewBox="0 0 53.142 53.106"><path fill="#5df" d="M53.142 16.77H36.238V0H51.33c.98 0 1.77.79 1.77 1.77zM0 16.77h16.904V0H1.81C.83 0 .04.79.04 1.77zM53.142 36.337H36.238v16.769H51.33c.98 0 1.77-.79 1.77-1.77zM18.12 0h16.867v16.77H18.12zM0 18.012h16.868v16.77H0zM18.12 18.012h16.867v16.77H18.12zM36.238 18.012h16.868v16.77H36.238zM18.12 36.336h16.867v16.77H18.12z" paint-order="markers stroke fill"/><text style="line-height:1.25;-inkscape-font-specification:Arial" x="76.078" y="123.429" stroke-width=".156" font-family="Arial" font-size="6.256" font-weight="400" letter-spacing="0" transform="translate(-69.15 -112.797)" word-spacing="0"><tspan x="76.078" y="123.429" style="-inkscape-font-specification:Arial">1</tspan></text><text style="line-height:1.25" x="93.797" y="123.503" stroke-width=".156" font-family="sans-serif" font-size="6.256" font-weight="400" letter-spacing="0" transform="translate(-69.15 -112.797)" word-spacing="0"><tspan x="93.797" y="123.503">2</tspan></text><text style="line-height:1.25" x="111.844" y="123.458" stroke-width=".156" font-family="sans-serif" font-size="6.256" font-weight="400" letter-spacing="0" transform="translate(-69.15 -112.797)" word-spacing="0"><tspan x="111.844" y="123.458">3</tspan></text><text style="line-height:1.25" x="75.617" y="141.474" stroke-width=".156" font-family="sans-serif" font-size="6.256" font-weight="400" letter-spacing="0" transform="translate(-69.15 -112.797)" word-spacing="0"><tspan x="75.617" y="141.474">4</tspan></text><text style="line-height:1.25" x="93.745" y="141.43" stroke-width=".156" font-family="sans-serif" font-size="6.256" font-weight="400" letter-spacing="0" transform="translate(-69.15 -112.797)" word-spacing="0"><tspan x="93.745" y="141.43">5</tspan></text><text style="line-height:1.25" x="111.81" y="141.471" stroke-width=".156" font-family="sans-serif" font-size="6.256" font-weight="400" letter-spacing="0" transform="translate(-69.15 -112.797)" word-spacing="0"><tspan x="111.81" y="141.471">6</tspan></text><path fill="#5df" d="M0 36.337h16.904v16.769H1.81c-.981 0-1.77-.79-1.77-1.77z" paint-order="markers stroke fill"/><text style="line-height:1.25" x="75.604" y="159.798" stroke-width=".156" font-family="sans-serif" font-size="6.256" font-weight="400" letter-spacing="0" transform="translate(-69.15 -112.797)" word-spacing="0"><tspan x="75.604" y="159.798">7</tspan></text><text style="line-height:1.25" x="93.714" y="159.795" stroke-width=".156" font-family="sans-serif" font-size="6.256" font-weight="400" letter-spacing="0" transform="translate(-69.15 -112.797)" word-spacing="0"><tspan x="93.714" y="159.795">8</tspan></text><text style="line-height:1.25" x="111.854" y="159.795" stroke-width=".156" font-family="sans-serif" font-size="6.256" font-weight="400" letter-spacing="0" transform="translate(-69.15 -112.797)" word-spacing="0"><tspan x="111.854" y="159.795">9</tspan></text></svg>