<svg xmlns="http://www.w3.org/2000/svg" viewBox="0 0 81.331 59.303"><path fill="#ff2a7f" d="M81.331 16.77H64.427V0h15.094c.98 0 1.77.79 1.77 1.77zM0 16.77h16.904V0H1.81C.83 0 .04.79.04 1.77zM81.331 42.534H64.427v16.769h15.094c.98 0 1.77-.79 1.77-1.77z" paint-order="markers stroke fill"/><path fill="#2ad4ff" d="M16.885 0h47.56v16.77h-47.56zM.018 16.77h16.868v25.764H.018z" paint-order="markers stroke fill"/><path fill="#ffe680" d="M16.885 16.77h47.56v25.764h-47.56z" paint-order="markers stroke fill"/><path fill="#2ad4ff" d="M64.445 16.77h16.868v25.764H64.445z" paint-order="markers stroke fill"/><path fill="#2ad4ff" d="M16.885 42.533h47.56v16.77h-47.56z" paint-order="markers stroke fill"/><text style="line-height:1.25;-inkscape-font-specification:Arial" x="76.096" y="123.429" stroke-width=".156" font-family="Arial" font-size="6.256" font-weight="400" letter-spacing="0" transform="translate(-69.15 -112.797)" word-spacing="0"><tspan x="76.096" y="123.429" style="-inkscape-font-specification:Arial">1</tspan></text><text style="line-height:1.25" x="107.909" y="123.503" stroke-width=".156" font-family="sans-serif" font-size="6.256" font-weight="400" letter-spacing="0" transform="translate(-69.15 -112.797)" word-spacing="0"><tspan x="107.909" y="123.503">2</tspan></text><text style="line-height:1.25" x="140.051" y="123.458" stroke-width=".156" font-family="sans-serif" font-size="6.256" font-weight="400" letter-spacing="0" transform="translate(-69.15 -112.797)" word-spacing="0"><tspan x="140.051" y="123.458">3</tspan></text><text style="line-height:1.25" x="75.634" y="144.728" stroke-width=".156" font-family="sans-serif" font-size="6.256" font-weight="400" letter-spacing="0" transform="translate(-69.15 -112.797)" word-spacing="0"><tspan x="75.634" y="144.728">4</tspan></text><text style="line-height:1.25" x="107.857" y="144.684" stroke-width=".156" font-family="sans-serif" font-size="6.256" font-weight="400" letter-spacing="0" transform="translate(-69.15 -112.797)" word-spacing="0"><tspan x="107.857" y="144.684">5</tspan></text><text style="line-height:1.25" x="140.018" y="144.725" stroke-width=".156" font-family="sans-serif" font-size="6.256" font-weight="400" letter-spacing="0" transform="translate(-69.15 -112.797)" word-spacing="0"><tspan x="140.018" y="144.725">6</tspan></text><path fill="#ff2a7f" d="M0 42.534h16.904v16.769H1.81c-.981 0-1.77-.79-1.77-1.77z" paint-order="markers stroke fill"/><text style="line-height:1.25" x="75.622" y="165.995" stroke-width=".156" font-family="sans-serif" font-size="6.256" font-weight="400" letter-spacing="0" transform="translate(-69.15 -112.797)" word-spacing="0"><tspan x="75.622" y="165.995">7</tspan></text><text style="line-height:1.25" x="107.827" y="165.992" stroke-width=".156" font-family="sans-serif" font-size="6.256" font-weight="400" letter-spacing="0" transform="translate(-69.15 -112.797)" word-spacing="0"><tspan x="107.827" y="165.992">8</tspan></text><text style="line-height:1.25" x="140.062" y="165.992" stroke-width=".156" font-family="sans-serif" font-size="6.256" font-weight="400" letter-spacing="0" transform="translate(-69.15 -112.797)" word-spacing="0"><tspan x="140.062" y="165.992">9</tspan></text></svg>