<svg xmlns="http://www.w3.org/2000/svg" viewBox="0 0 124.489 19.298"><text x="61.57" y="67.152" style="line-height:1.25;font-variant-ligatures:normal;font-variant-position:normal;font-variant-caps:normal;font-variant-numeric:normal;font-variant-alternates:normal;font-feature-settings:normal;text-indent:0;text-align:start;text-decoration-line:none;text-decoration-style:solid;text-decoration-color:#000;text-transform:none;text-orientation:mixed;white-space:normal;shape-padding:0" stroke-width=".084" font-family="sans-serif" font-size="3.341" font-weight="400" letter-spacing="0" transform="matrix(.9792 0 0 1.02124 -17.176 -66.094)" word-spacing="0"><tspan style="line-height:1.25;-inkscape-font-specification:Arial;font-variant-ligatures:normal;font-variant-position:normal;font-variant-caps:normal;font-variant-numeric:normal;font-variant-alternates:normal;font-feature-settings:normal;text-indent:0;text-align:start;text-decoration-line:none;text-decoration-style:solid;text-decoration-color:#000;text-transform:none;text-orientation:mixed;white-space:normal;shape-padding:0" x="61.57" y="67.152" font-family="Arial">Clip</tspan></text><path fill="#fff" stroke="#000" stroke-dashoffset="48.686" stroke-width=".265" d="M32.72 4.613H59.18v14.552H32.72z" paint-order="markers stroke fill"/><path fill="#5df" d="M32.721 4.613h6.615v6.615h-6.615z"/><path fill="#ff8080" d="M36.687 6.684h2.648v4.544h-2.648z" paint-order="markers stroke fill"/><path fill="#cd87de" d="M32.721 9.881h3.133v1.347h-3.133z" paint-order="markers stroke fill"/><text x="90.194" y="67.152" stroke-width=".084" font-family="Arial" font-size="3.341" font-weight="400" letter-spacing="0" transform="matrix(.9792 0 0 1.02124 -13.88 -66.094)" style="line-height:1.25;-inkscape-font-specification:Arial" word-spacing="0"><tspan style="-inkscape-font-specification:Arial" x="90.194" y="67.152">Scale</tspan></text><path fill="#fff" stroke="#000" stroke-dashoffset="48.686" stroke-width=".265" d="M65.31 4.613h26.457v14.552H65.31z" paint-order="markers stroke fill"/><path d="M65.31 4.613h6.878v6.88H65.31z" paint-order="markers stroke fill"/><path fill="#5df" d="M65.31 4.613h14.554v14.553H65.31z"/><path fill="#ff8080" d="M74.036 9.169h5.826v9.997h-5.826z" paint-order="markers stroke fill"/><path fill="#cd87de" d="M65.31 16.202h6.893v2.964h-6.892z" paint-order="markers stroke fill"/><g><text x="118.966" y="67.152" stroke-width=".084" font-family="Arial" font-size="3.341" font-weight="400" letter-spacing="0" transform="matrix(.9792 0 0 1.02124 -12.707 -66.094)" style="line-height:1.25;-inkscape-font-specification:Arial" word-spacing="0"><tspan style="-inkscape-font-specification:Arial" x="118.966" y="67.152">Translate</tspan></text><path fill="#fff" stroke="#000" stroke-dashoffset="48.686" stroke-width=".265" d="M97.898 4.613h26.458v14.552H97.898z" paint-order="markers stroke fill"/><path d="M103.851 4.613h6.88v6.88h-6.88z" paint-order="markers stroke fill"/><path fill="#5df" d="M103.852 4.613h14.554v14.553h-14.554z"/><path fill="#ff8080" d="M112.578 9.169h5.825v9.997h-5.825z" paint-order="markers stroke fill"/><path fill="#cd87de" d="M103.852 16.202h6.893v2.964h-6.893z" paint-order="markers stroke fill"/></g><g><path fill="#fff" stroke="#000" stroke-dashoffset="48.686" stroke-width=".265" d="M.132 4.614H26.59v14.552H.132z" paint-order="markers stroke fill"/><path fill="#5df" d="M.132 4.614h6.615v6.615H.132z"/><path fill="#ff8080" d="M4.1 6.684h5.378v5.379H4.1z" paint-order="markers stroke fill"/><path fill="#cd87de" d="M.132 9.882h3.133v3.133H.132z" paint-order="markers stroke fill"/><text x="28.978" y="67.152" style="line-height:1.25;-inkscape-font-specification:Arial" stroke-width=".084" font-family="Arial" font-size="3.341" font-weight="400" letter-spacing="0" transform="matrix(.9792 0 0 1.02124 -20.471 -66.094)" word-spacing="0"><tspan style="-inkscape-font-specification:Arial" x="28.978" y="67.152">Images</tspan></text></g><path d="M28.294 13.52v-3.147l2.724 1.573zM60.882 13.52v-3.147l2.725 1.573zM93.471 13.52v-3.147l2.725 1.573z" paint-order="markers stroke fill"/></svg>